<svg xmlns="http://www.w3.org/2000/svg" viewBox="0 0 512 512" width="512" height="512">
  <!-- Background circle -->
  <circle cx="256" cy="256" r="240" fill="#0057FF"/>

  <!-- Document icon -->
  <g transform="translate(140, 100)">
    <rect x="0" y="0" width="180" height="240" rx="10" fill="white" opacity="0.95"/>
    <rect x="20" y="30" width="140" height="8" rx="4" fill="#0057FF" opacity="0.6"/>
    <rect x="20" y="55" width="140" height="8" rx="4" fill="#0057FF" opacity="0.4"/>
    <rect x="20" y="80" width="100" height="8" rx="4" fill="#0057FF" opacity="0.4"/>

    <!-- Quiz checkboxes -->
    <circle cx="30" cy="130" r="8" fill="none" stroke="#0057FF" stroke-width="2"/>
    <circle cx="30" cy="160" r="8" fill="none" stroke="#0057FF" stroke-width="2"/>
    <circle cx="30" cy="190" r="8" fill="#0057FF"/>
    <path d="M 26 190 L 29 193 L 34 186" fill="none" stroke="white" stroke-width="2" stroke-linecap="round"/>

    <rect x="50" y="125" width="110" height="6" rx="3" fill="#0057FF" opacity="0.3"/>
    <rect x="50" y="155" width="110" height="6" rx="3" fill="#0057FF" opacity="0.3"/>
    <rect x="50" y="185" width="110" height="6" rx="3" fill="#0057FF" opacity="0.3"/>
  </g>

  <!-- AI Sparkle -->
  <g transform="translate(350, 150)">
    <path d="M 0 -20 L 5 -5 L 20 0 L 5 5 L 0 20 L -5 5 L -20 0 L -5 -5 Z" fill="#FFD700"/>
    <circle cx="0" cy="0" r="8" fill="#FFD700"/>
  </g>
</svg>
